<svg width="219" height="40" viewBox="0 0 219 40" fill="none" xmlns="http://www.w3.org/2000/svg">
<path d="M52.86 27.14C51.5533 27.14 50.3533 26.8333 49.26 26.22C48.1667 25.6067 47.3 24.76 46.66 23.68C46.02 22.5867 45.7 21.3533 45.7 19.98C45.7 18.62 46.02 17.4 46.66 16.32C47.3 15.2267 48.1667 14.3733 49.26 13.76C50.3533 13.1467 51.5533 12.84 52.86 12.84C54.18 12.84 55.38 13.1467 56.46 13.76C57.5533 14.3733 58.4133 15.2267 59.04 16.32C59.68 17.4 60 18.62 60 19.98C60 21.3533 59.68 22.5867 59.04 23.68C58.4133 24.76 57.5533 25.6067 56.46 26.22C55.3667 26.8333 54.1667 27.14 52.86 27.14ZM52.86 24.64C53.7 24.64 54.44 24.4533 55.08 24.08C55.72 23.6933 56.22 23.1467 56.58 22.44C56.94 21.7333 57.12 20.9133 57.12 19.98C57.12 19.0467 56.94 18.2333 56.58 17.54C56.22 16.8333 55.72 16.2933 55.08 15.92C54.44 15.5467 53.7 15.36 52.86 15.36C52.02 15.36 51.2733 15.5467 50.62 15.92C49.98 16.2933 49.48 16.8333 49.12 17.54C48.76 18.2333 48.58 19.0467 48.58 19.98C48.58 20.9133 48.76 21.7333 49.12 22.44C49.48 23.1467 49.98 23.6933 50.62 24.08C51.2733 24.4533 52.02 24.64 52.86 24.64ZM66.3231 27.18C65.4165 27.18 64.6031 27.02 63.8831 26.7C63.1631 26.3667 62.5898 25.92 62.1631 25.36C61.7498 24.8 61.5231 24.18 61.4831 23.5H64.3031C64.3565 23.9267 64.5631 24.28 64.9231 24.56C65.2965 24.84 65.7565 24.98 66.3031 24.98C66.8365 24.98 67.2498 24.8733 67.5431 24.66C67.8498 24.4467 68.0031 24.1733 68.0031 23.84C68.0031 23.48 67.8165 23.2133 67.4431 23.04C67.0831 22.8533 66.5031 22.6533 65.7031 22.44C64.8765 22.24 64.1965 22.0333 63.6631 21.82C63.1431 21.6067 62.6898 21.28 62.3031 20.84C61.9298 20.4 61.7431 19.8067 61.7431 19.06C61.7431 18.4467 61.9165 17.8867 62.2631 17.38C62.6231 16.8733 63.1298 16.4733 63.7831 16.18C64.4498 15.8867 65.2298 15.74 66.1231 15.74C67.4431 15.74 68.4965 16.0733 69.2831 16.74C70.0698 17.3933 70.5031 18.28 70.5831 19.4H67.9031C67.8631 18.96 67.6765 18.6133 67.3431 18.36C67.0231 18.0933 66.5898 17.96 66.0431 17.96C65.5365 17.96 65.1431 18.0533 64.8631 18.24C64.5965 18.4267 64.4631 18.6867 64.4631 19.02C64.4631 19.3933 64.6498 19.68 65.0231 19.88C65.3965 20.0667 65.9765 20.26 66.7631 20.46C67.5631 20.66 68.2231 20.8667 68.7431 21.08C69.2631 21.2933 69.7098 21.6267 70.0831 22.08C70.4698 22.52 70.6698 23.1067 70.6831 23.84C70.6831 24.48 70.5031 25.0533 70.1431 25.56C69.7965 26.0667 69.2898 26.4667 68.6231 26.76C67.9698 27.04 67.2031 27.18 66.3231 27.18ZM72.2616 21.46C72.2616 20.3133 72.4949 19.3133 72.9616 18.46C73.4282 17.5933 74.0749 16.9267 74.9016 16.46C75.7282 15.98 76.6749 15.74 77.7416 15.74C79.1149 15.74 80.2482 16.0867 81.1416 16.78C82.0482 17.46 82.6549 18.42 82.9616 19.66H79.9416C79.7816 19.18 79.5082 18.8067 79.1216 18.54C78.7482 18.26 78.2816 18.12 77.7216 18.12C76.9216 18.12 76.2882 18.4133 75.8216 19C75.3549 19.5733 75.1216 20.3933 75.1216 21.46C75.1216 22.5133 75.3549 23.3333 75.8216 23.92C76.2882 24.4933 76.9216 24.78 77.7216 24.78C78.8549 24.78 79.5949 24.2733 79.9416 23.26H82.9616C82.6549 24.46 82.0482 25.4133 81.1416 26.12C80.2349 26.8267 79.1016 27.18 77.7416 27.18C76.6749 27.18 75.7282 26.9467 74.9016 26.48C74.0749 26 73.4282 25.3333 72.9616 24.48C72.4949 23.6133 72.2616 22.6067 72.2616 21.46ZM84.2928 21.42C84.2928 20.3 84.5128 19.3067 84.9528 18.44C85.4061 17.5733 86.0128 16.9067 86.7728 16.44C87.5461 15.9733 88.4061 15.74 89.3528 15.74C90.1795 15.74 90.8995 15.9067 91.5128 16.24C92.1395 16.5733 92.6395 16.9933 93.0128 17.5V15.92H95.8328V27H93.0128V25.38C92.6528 25.9 92.1528 26.3333 91.5128 26.68C90.8861 27.0133 90.1595 27.18 89.3328 27.18C88.3995 27.18 87.5461 26.94 86.7728 26.46C86.0128 25.98 85.4061 25.3067 84.9528 24.44C84.5128 23.56 84.2928 22.5533 84.2928 21.42ZM93.0128 21.46C93.0128 20.78 92.8795 20.2 92.6128 19.72C92.3461 19.2267 91.9861 18.8533 91.5328 18.6C91.0795 18.3333 90.5928 18.2 90.0728 18.2C89.5528 18.2 89.0728 18.3267 88.6328 18.58C88.1928 18.8333 87.8328 19.2067 87.5528 19.7C87.2861 20.18 87.1528 20.7533 87.1528 21.42C87.1528 22.0867 87.2861 22.6733 87.5528 23.18C87.8328 23.6733 88.1928 24.0533 88.6328 24.32C89.0861 24.5867 89.5661 24.72 90.0728 24.72C90.5928 24.72 91.0795 24.5933 91.5328 24.34C91.9861 24.0733 92.3461 23.7 92.6128 23.22C92.8795 22.7267 93.0128 22.14 93.0128 21.46ZM101.368 17.64C101.728 17.0533 102.194 16.5933 102.768 16.26C103.354 15.9267 104.021 15.76 104.768 15.76V18.7H104.028C103.148 18.7 102.481 18.9067 102.028 19.32C101.588 19.7333 101.368 20.4533 101.368 21.48V27H98.5675V15.92H101.368V17.64Z" fill="#2B364F"/>
<path d="M119.979 24.34H114.419L113.499 27H110.559L115.579 13.02H118.839L123.859 27H120.899L119.979 24.34ZM119.219 22.1L117.199 16.26L115.179 22.1H119.219ZM128.535 17.64C128.895 17.0533 129.362 16.5933 129.935 16.26C130.522 15.9267 131.189 15.76 131.935 15.76V18.7H131.195C130.315 18.7 129.649 18.9067 129.195 19.32C128.755 19.7333 128.535 20.4533 128.535 21.48V27H125.735V15.92H128.535V17.64ZM135.241 14.6C134.748 14.6 134.335 14.4467 134.001 14.14C133.681 13.82 133.521 13.4267 133.521 12.96C133.521 12.4933 133.681 12.1067 134.001 11.8C134.335 11.48 134.748 11.32 135.241 11.32C135.735 11.32 136.141 11.48 136.461 11.8C136.795 12.1067 136.961 12.4933 136.961 12.96C136.961 13.4267 136.795 13.82 136.461 14.14C136.141 14.4467 135.735 14.6 135.241 14.6ZM136.621 15.92V27H133.821V15.92H136.621ZM143.628 27.18C142.721 27.18 141.908 27.02 141.188 26.7C140.468 26.3667 139.894 25.92 139.468 25.36C139.054 24.8 138.828 24.18 138.788 23.5H141.608C141.661 23.9267 141.868 24.28 142.228 24.56C142.601 24.84 143.061 24.98 143.608 24.98C144.141 24.98 144.554 24.8733 144.848 24.66C145.154 24.4467 145.308 24.1733 145.308 23.84C145.308 23.48 145.121 23.2133 144.748 23.04C144.388 22.8533 143.808 22.6533 143.008 22.44C142.181 22.24 141.501 22.0333 140.968 21.82C140.448 21.6067 139.994 21.28 139.608 20.84C139.234 20.4 139.048 19.8067 139.048 19.06C139.048 18.4467 139.221 17.8867 139.568 17.38C139.928 16.8733 140.434 16.4733 141.088 16.18C141.754 15.8867 142.534 15.74 143.428 15.74C144.748 15.74 145.801 16.0733 146.588 16.74C147.374 17.3933 147.808 18.28 147.888 19.4H145.208C145.168 18.96 144.981 18.6133 144.648 18.36C144.328 18.0933 143.894 17.96 143.348 17.96C142.841 17.96 142.448 18.0533 142.168 18.24C141.901 18.4267 141.768 18.6867 141.768 19.02C141.768 19.3933 141.954 19.68 142.328 19.88C142.701 20.0667 143.281 20.26 144.068 20.46C144.868 20.66 145.528 20.8667 146.048 21.08C146.568 21.2933 147.014 21.6267 147.388 22.08C147.774 22.52 147.974 23.1067 147.988 23.84C147.988 24.48 147.808 25.0533 147.448 25.56C147.101 26.0667 146.594 26.4667 145.928 26.76C145.274 27.04 144.508 27.18 143.628 27.18ZM153.546 18.22V23.58C153.546 23.9533 153.633 24.2267 153.806 24.4C153.993 24.56 154.3 24.64 154.726 24.64H156.026V27H154.266C151.906 27 150.726 25.8533 150.726 23.56V18.22H149.406V15.92H150.726V13.18H153.546V15.92H156.026V18.22H153.546ZM159.46 14.6C158.967 14.6 158.553 14.4467 158.22 14.14C157.9 13.82 157.74 13.4267 157.74 12.96C157.74 12.4933 157.9 12.1067 158.22 11.8C158.553 11.48 158.967 11.32 159.46 11.32C159.953 11.32 160.36 11.48 160.68 11.8C161.013 12.1067 161.18 12.4933 161.18 12.96C161.18 13.4267 161.013 13.82 160.68 14.14C160.36 14.4467 159.953 14.6 159.46 14.6ZM160.84 15.92V27H158.04V15.92H160.84ZM166.167 24.7H171.107V27H162.987V24.74L167.827 18.22H163.007V15.92H171.047V18.18L166.167 24.7ZM172.555 21.42C172.555 20.3 172.775 19.3067 173.215 18.44C173.668 17.5733 174.275 16.9067 175.035 16.44C175.808 15.9733 176.668 15.74 177.615 15.74C178.441 15.74 179.161 15.9067 179.775 16.24C180.401 16.5733 180.901 16.9933 181.275 17.5V15.92H184.095V27H181.275V25.38C180.915 25.9 180.415 26.3333 179.775 26.68C179.148 27.0133 178.421 27.18 177.595 27.18C176.661 27.18 175.808 26.94 175.035 26.46C174.275 25.98 173.668 25.3067 173.215 24.44C172.775 23.56 172.555 22.5533 172.555 21.42ZM181.275 21.46C181.275 20.78 181.141 20.2 180.875 19.72C180.608 19.2267 180.248 18.8533 179.795 18.6C179.341 18.3333 178.855 18.2 178.335 18.2C177.815 18.2 177.335 18.3267 176.895 18.58C176.455 18.8333 176.095 19.2067 175.815 19.7C175.548 20.18 175.415 20.7533 175.415 21.42C175.415 22.0867 175.548 22.6733 175.815 23.18C176.095 23.6733 176.455 24.0533 176.895 24.32C177.348 24.5867 177.828 24.72 178.335 24.72C178.855 24.72 179.341 24.5933 179.795 24.34C180.248 24.0733 180.608 23.7 180.875 23.22C181.141 22.7267 181.275 22.14 181.275 21.46ZM180.895 13.04L176.295 15.14V13.14L180.895 10.76V13.04ZM189.629 17.54C189.989 17.0067 190.483 16.5733 191.109 16.24C191.749 15.9067 192.476 15.74 193.289 15.74C194.236 15.74 195.089 15.9733 195.849 16.44C196.623 16.9067 197.229 17.5733 197.669 18.44C198.123 19.2933 198.349 20.2867 198.349 21.42C198.349 22.5533 198.123 23.56 197.669 24.44C197.229 25.3067 196.623 25.98 195.849 26.46C195.089 26.94 194.236 27.18 193.289 27.18C192.463 27.18 191.736 27.02 191.109 26.7C190.496 26.3667 190.003 25.94 189.629 25.42V27H186.829V12.2H189.629V17.54ZM195.489 21.42C195.489 20.7533 195.349 20.18 195.069 19.7C194.803 19.2067 194.443 18.8333 193.989 18.58C193.549 18.3267 193.069 18.2 192.549 18.2C192.043 18.2 191.563 18.3333 191.109 18.6C190.669 18.8533 190.309 19.2267 190.029 19.72C189.763 20.2133 189.629 20.7933 189.629 21.46C189.629 22.1267 189.763 22.7067 190.029 23.2C190.309 23.6933 190.669 24.0733 191.109 24.34C191.563 24.5933 192.043 24.72 192.549 24.72C193.069 24.72 193.549 24.5867 193.989 24.32C194.443 24.0533 194.803 23.6733 195.069 23.18C195.349 22.6867 195.489 22.1 195.489 21.42ZM199.664 21.42C199.664 20.3 199.884 19.3067 200.324 18.44C200.777 17.5733 201.384 16.9067 202.144 16.44C202.917 15.9733 203.777 15.74 204.724 15.74C205.551 15.74 206.271 15.9067 206.884 16.24C207.511 16.5733 208.011 16.9933 208.384 17.5V15.92H211.204V27H208.384V25.38C208.024 25.9 207.524 26.3333 206.884 26.68C206.257 27.0133 205.531 27.18 204.704 27.18C203.771 27.18 202.917 26.94 202.144 26.46C201.384 25.98 200.777 25.3067 200.324 24.44C199.884 23.56 199.664 22.5533 199.664 21.42ZM208.384 21.46C208.384 20.78 208.251 20.2 207.984 19.72C207.717 19.2267 207.357 18.8533 206.904 18.6C206.451 18.3333 205.964 18.2 205.444 18.2C204.924 18.2 204.444 18.3267 204.004 18.58C203.564 18.8333 203.204 19.2067 202.924 19.7C202.657 20.18 202.524 20.7533 202.524 21.42C202.524 22.0867 202.657 22.6733 202.924 23.18C203.204 23.6733 203.564 24.0533 204.004 24.32C204.457 24.5867 204.937 24.72 205.444 24.72C205.964 24.72 206.451 24.5933 206.904 24.34C207.357 24.0733 207.717 23.7 207.984 23.22C208.251 22.7267 208.384 22.14 208.384 21.46ZM216.739 12.2V27H213.939V12.2H216.739Z" fill="#48A48F"/>
<g clip-path="url(#clip0_1_282)">
<path d="M31.7578 31.2188C30.2656 27.5703 26.6797 25 22.5 25H17.5C13.3203 25 9.73438 27.5703 8.24219 31.2188C5.46094 28.2969 3.75 24.3516 3.75 20C3.75 11.0234 11.0234 3.75 20 3.75C28.9766 3.75 36.25 11.0234 36.25 20C36.25 24.3516 34.5391 28.2969 31.7578 31.2188ZM28.625 33.7734C26.125 35.3438 23.1719 36.25 20 36.25C16.8281 36.25 13.875 35.3438 11.3672 33.7734C11.9375 30.9062 14.4688 28.75 17.5 28.75H22.5C25.5312 28.75 28.0625 30.9062 28.6328 33.7734H28.625ZM20 40C25.3043 40 30.3914 37.8929 34.1421 34.1421C37.8929 30.3914 40 25.3043 40 20C40 14.6957 37.8929 9.60859 34.1421 5.85786C30.3914 2.10714 25.3043 0 20 0C14.6957 0 9.60859 2.10714 5.85786 5.85786C2.10714 9.60859 0 14.6957 0 20C0 25.3043 2.10714 30.3914 5.85786 34.1421C9.60859 37.8929 14.6957 40 20 40ZM20 18.75C19.1712 18.75 18.3763 18.4208 17.7903 17.8347C17.2042 17.2487 16.875 16.4538 16.875 15.625C16.875 14.7962 17.2042 14.0013 17.7903 13.4153C18.3763 12.8292 19.1712 12.5 20 12.5C20.8288 12.5 21.6237 12.8292 22.2097 13.4153C22.7958 14.0013 23.125 14.7962 23.125 15.625C23.125 16.4538 22.7958 17.2487 22.2097 17.8347C21.6237 18.4208 20.8288 18.75 20 18.75ZM13.125 15.625C13.125 17.4484 13.8493 19.197 15.1386 20.4864C16.428 21.7757 18.1766 22.5 20 22.5C21.8234 22.5 23.572 21.7757 24.8614 20.4864C26.1507 19.197 26.875 17.4484 26.875 15.625C26.875 13.8016 26.1507 12.053 24.8614 10.7636C23.572 9.47433 21.8234 8.75 20 8.75C18.1766 8.75 16.428 9.47433 15.1386 10.7636C13.8493 12.053 13.125 13.8016 13.125 15.625Z" fill="#2B364F"/>
</g>
<defs>
<clipPath id="clip0_1_282">
<rect width="40" height="40" fill="white"/>
</clipPath>
</defs>
</svg>
